<svg width="162" height="60" viewBox="0 0 162 60" fill="none" xmlns="http://www.w3.org/2000/svg">
<path d="M1.2583 7.24788C1.2583 4.87736 1.83465 3.07686 2.98734 1.84611C4.14003 0.615093 5.62143 0 7.43183 0C9.24222 0 10.6849 0.534014 11.7592 1.60205C12.8336 2.67009 13.3709 4.37633 13.3709 6.72074C13.3709 9.06515 12.7976 10.8365 11.6518 12.0345C10.5054 13.2329 8.97534 13.832 7.06051 13.832C5.40623 13.832 4.05208 13.3568 2.99696 12.4059C2.45002 11.9111 2.02319 11.224 1.71756 10.3448C1.41139 9.46532 1.2583 8.43301 1.2583 7.24788ZM7.37328 0.195136C6.05761 0.195136 4.97995 0.781377 4.14003 1.95331C3.29983 3.12551 2.87988 4.84493 2.87988 7.11101C2.87988 9.37709 3.27675 11.0314 4.0716 12.0733C4.86589 13.1155 5.92404 13.6363 7.24631 13.6363C8.5683 13.6363 9.64926 13.0471 10.4895 11.8683C11.3296 10.6895 11.7496 8.97665 11.7496 6.73008C11.7496 4.48351 11.3492 2.83253 10.548 1.7774C9.7471 0.722557 8.68868 0.195136 7.37328 0.195136Z" fill="white"/>
<path d="M18.2159 13.7534H17.9619V0.0777588H18.6262L26.7533 12.7178V0.0777588H27.0073V13.7534H25.5814L18.2159 2.42217V13.7534Z" fill="white"/>
<path d="M39.9597 0.0777588V0.273172H33.8054V6.1342H39.5103V6.32961H33.8054V13.558H40.3892V13.7534H32.1841V0.0777588H39.9597Z" fill="white"/>
<path d="M8.85779 23.5941C7.67266 23.1385 6.55542 22.9103 5.50745 22.9103C4.45892 22.9103 3.64154 23.1319 3.05558 23.5746C2.46934 24.0174 2.17635 24.6295 2.17635 25.4111C2.17635 26.3618 2.67134 27.0981 3.66105 27.6187C4.10355 27.8402 4.5892 28.0455 5.11662 28.234C5.64405 28.4231 6.17477 28.6345 6.70879 28.8689C7.24253 29.1034 7.73121 29.3705 8.17398 29.6701C8.61648 29.9697 8.97514 30.383 9.24861 30.9107C9.52208 31.4384 9.65868 32.1093 9.65868 32.9231C9.65868 33.7369 9.43083 34.4304 8.97514 35.0037C8.51918 35.577 7.96894 35.964 7.32416 36.166C6.67938 36.368 5.92741 36.4689 5.0677 36.4689C3.46564 36.4689 2.09802 36.0717 0.964844 35.2772L1.06242 35.1211C1.49227 35.4597 2.0491 35.7362 2.73291 35.9514C3.41644 36.166 4.11647 36.2735 4.83326 36.2735C5.88811 36.2735 6.78987 36.0291 7.53909 35.5408C8.28803 35.0529 8.66237 34.3328 8.66237 33.3821C8.66237 32.3402 8.16711 31.5258 7.17767 30.9396C6.7349 30.6796 6.2498 30.4388 5.7221 30.217C5.19468 29.9958 4.66368 29.7646 4.12994 29.5236C3.59592 29.2828 3.10724 29.0127 2.66475 28.7128C1.67476 28.0617 1.18005 27.1371 1.18005 25.9386C1.18005 24.9882 1.49914 24.2164 2.13733 23.6236C2.77524 23.031 3.73581 22.7347 5.01878 22.7347C6.30147 22.7347 7.60725 22.9562 8.93584 23.399L8.85779 23.5941Z" fill="white"/>
<path d="M14.2495 22.9689V22.7735H17.7271V22.9689H16.7698V36.2537H17.7271V36.4491H14.2495V36.2537H15.1485V22.9689H14.2495Z" fill="white"/>
<path d="M29.2345 36.5272C26.7992 36.5272 24.9951 35.8373 23.8232 34.4568C23.4059 33.9618 23.0676 33.3038 22.8073 32.4834C22.5468 31.6627 22.4165 30.6664 22.4165 29.4942C22.4165 28.322 22.6086 27.2705 22.9929 26.3393C23.3768 25.4081 23.9015 24.6883 24.5658 24.1804C25.8551 23.23 27.4115 22.7542 29.2348 22.7542C29.8211 22.7542 30.3941 22.7966 30.9542 22.8812C31.5141 22.9661 31.931 23.0538 32.2045 23.1448L32.6148 23.2817L32.556 23.4771C31.5402 23.1253 30.4329 22.9497 29.2348 22.9497C27.8543 22.9497 26.7016 23.399 25.777 24.2978C25.0734 24.9621 24.5787 25.9388 24.2923 27.2284C24.123 27.9578 24.0384 28.8497 24.0384 29.9051C24.0384 30.9599 24.1879 31.9337 24.4877 32.8259C24.787 33.718 25.1289 34.3787 25.5132 34.8089C25.8971 35.2382 26.363 35.5803 26.9102 35.834C27.4571 36.088 27.8933 36.2345 28.219 36.2738C28.5447 36.3131 28.9322 36.3323 29.3813 36.3323C29.8304 36.3323 30.4329 36.2806 31.1884 36.1762V32.1517H28.8245V31.9563H33.6502V32.1517H32.81V36.0006C31.8197 36.3515 30.628 36.5272 29.2345 36.5272Z" fill="white"/>
<path d="M38.1822 36.4494H37.9282V22.7737H38.5922L46.7193 35.4141V22.7737H46.9736V36.4494H45.5474L38.1822 25.1179V36.4494Z" fill="white"/>
<path d="M51.4081 36.4494H51.1733L57.0149 22.7738L57.2298 22.6762L62.153 36.4497H60.4924L58.9684 32.1514H53.2638L51.4081 36.4494ZM56.4094 24.8834L53.3421 31.9557H58.9102L56.4094 24.8834Z" fill="white"/>
<path d="M69.4989 36.4494H67.8776V22.9692H64.4976V22.7737H72.8984V22.9692H69.4989V36.4494Z" fill="white"/>
<path d="M86.7888 22.7735H87.0427V30.5881C87.0427 32.6329 86.639 34.1338 85.8318 35.0911C85.024 36.0487 83.9691 36.5272 82.6664 36.5272C81.846 36.5272 81.149 36.4521 80.5762 36.3029C80.0029 36.1531 79.4625 35.8761 78.9549 35.4726C77.9127 34.6651 77.3916 33.0372 77.3916 30.5884V22.7737H79.0132V30.5688C79.0132 32.9394 79.3713 34.5219 80.0875 35.3162C80.452 35.707 80.8332 35.9739 81.2303 36.1171C81.6275 36.2603 82.1063 36.3318 82.6664 36.3318C83.9169 36.3318 84.9165 35.8728 85.6652 34.9548C86.4141 34.0363 86.7888 32.5746 86.7888 30.5686V22.7735Z" fill="white"/>
<path d="M92.0244 22.9299C93.5352 22.8257 94.8701 22.7735 96.0294 22.7735C99.2462 22.7735 100.855 23.8481 100.855 25.9971C100.855 26.909 100.633 27.7231 100.191 28.4391C99.7481 29.1556 98.9859 29.6308 97.9052 29.8652L101.812 36.4494H99.9957L96.1663 29.9826H93.6463V36.4494H92.0247V22.9299H92.0244ZM96.0294 22.9689C95.2739 22.9689 94.4793 23.0148 93.646 23.1058V29.7872H96.5373C98.3741 29.7091 99.2921 28.4589 99.2921 26.0361C99.2921 25.0464 99.0186 24.2876 98.4714 23.7602C97.9245 23.2327 97.1104 22.9689 96.0294 22.9689Z" fill="white"/>
<path d="M114.081 22.7735V22.9689H107.927V28.8299H113.632V29.0253H107.927V36.254H114.511V36.4494H106.306V22.7737H114.081V22.7735Z" fill="white"/>
<path d="M3.21175 45.489C3.78479 45.4626 4.34795 45.4497 4.90148 45.4497C5.45501 45.4497 6.04098 45.5082 6.65965 45.6253C7.27805 45.7429 7.89067 45.9609 8.49615 46.2802C9.10191 46.5991 9.61614 47.0097 10.0397 47.5107C10.4627 48.0126 10.8046 48.6733 11.0651 49.4937C11.3254 50.3144 11.4559 51.3107 11.4559 52.4832C11.4559 53.6551 11.2635 54.7072 10.8796 55.6381C10.4954 56.5696 9.97096 57.2828 9.30666 57.7778C8.01737 58.7414 6.46094 59.2234 4.63763 59.2234C3.99917 59.2234 3.32855 59.1971 2.62523 59.1451H1.64844V45.4892L3.21175 45.489ZM3.27029 58.9887C3.54376 59.0151 3.88896 59.028 4.3059 59.028C4.72283 59.028 5.03506 59.0217 5.24366 59.0082C5.45199 58.9959 5.73865 58.9401 6.10337 58.8422C6.46781 58.7446 6.80669 58.6114 7.11919 58.4418C7.43168 58.2728 7.7604 58.0221 8.10588 57.6898C8.4508 57.3575 8.74709 56.964 8.99444 56.5077C9.5543 55.4399 9.83464 54.0459 9.83464 52.3271C9.83464 51.1027 9.68485 50.0445 9.38527 49.1524C9.08542 48.2602 8.74379 47.599 8.35983 47.1694C7.9756 46.7395 7.51001 46.3973 6.9628 46.1437C6.41586 45.8897 5.97941 45.7432 5.654 45.7039C5.32804 45.6646 4.9504 45.6454 4.52082 45.6454C4.09124 45.6454 3.67403 45.6646 3.27029 45.7039V58.9887Z" fill="white"/>
<path d="M23.9206 45.4692V45.6646H17.7663V51.5254H23.4712V51.7208H17.7663V58.9494H24.3502V59.1448H16.145V45.4692H23.9206Z" fill="white"/>
<path d="M38.143 45.4692C38.3901 45.7165 38.5143 46.0359 38.5143 46.4267C38.5143 46.7521 38.4426 47.0844 38.2994 47.423L33.2981 59.1445L33.0834 59.2421L28.1602 45.4689H29.8208L33.9038 57.0348L38.0652 47.4228C38.2084 47.0968 38.2799 46.7582 38.2799 46.4067C38.2799 46.0551 38.1823 45.7819 37.9872 45.5865L38.143 45.4692Z" fill="white"/>
<path d="M50.7834 45.4692V45.6646H44.6291V51.5254H50.334V51.7208H44.6291V58.9494H51.213V59.1448H43.0078V45.4692H50.7834Z" fill="white"/>
<path d="M63.2283 59.1448H55.8042V45.4692H57.4255V58.9494H63.228V59.1448H63.2283Z" fill="white"/>
<path d="M66.354 52.6393C66.354 50.2688 66.9303 48.4683 68.083 47.2375C69.2357 46.0068 70.7171 45.3914 72.5275 45.3914C74.3379 45.3914 75.7806 45.9254 76.8549 46.9932C77.9293 48.0615 78.4666 49.7675 78.4666 52.1116C78.4666 54.4563 77.8933 56.2279 76.7475 57.426C75.6011 58.624 74.071 59.2232 72.1562 59.2232C70.5019 59.2232 69.1478 58.7477 68.0927 57.797C67.5457 57.302 67.1189 56.6149 66.8133 55.7357C66.5068 54.8567 66.354 53.8244 66.354 52.6393ZM72.469 45.5868C71.1533 45.5868 70.0756 46.1725 69.2357 47.3447C68.3955 48.5172 67.9756 50.2361 67.9756 52.5024C67.9756 54.7688 68.3724 56.4228 69.1673 57.4647C69.9616 58.5072 71.0197 59.028 72.342 59.028C73.664 59.028 74.745 58.4385 75.5851 57.2597C76.4253 56.0814 76.8453 54.3683 76.8453 52.1215C76.8453 49.8749 76.4449 48.2242 75.6437 47.1694C74.8425 46.114 73.7844 45.5868 72.469 45.5868Z" fill="white"/>
<path d="M83.1548 45.6253C84.6656 45.5211 85.9939 45.4692 87.1403 45.4692C90.3702 45.4692 91.9855 46.6092 91.9855 48.888C91.9855 49.9434 91.712 50.8682 91.1651 51.6622C90.8784 52.0921 90.4354 52.4343 89.8365 52.6879C89.2371 52.9419 88.5142 53.0691 87.6677 53.0691H84.7764V59.1445H83.1548V45.6253ZM87.1601 45.6646C86.4045 45.6646 85.61 45.7102 84.7766 45.8015V52.8737H87.668C89.5048 52.7954 90.4227 51.4803 90.4227 48.9273C90.4227 47.8853 90.1493 47.0811 89.6021 46.5144C89.0548 45.948 88.2408 45.6646 87.1601 45.6646Z" fill="white"/>
<path d="M97.0262 59.1448H96.772L98.4719 45.4692H99.1167L103.22 58.1092L107.302 45.4692H107.947L109.647 59.1448H108.026L106.678 48.2041L103.141 59.1448H101.911L98.3353 48.341L97.0262 59.1448Z" fill="white"/>
<path d="M122.697 45.4692V45.6646H116.543V51.5254H122.248V51.7208H116.543V58.9494H123.127V59.1448H114.921V45.4692H122.697Z" fill="white"/>
<path d="M127.874 59.1448H127.62V45.4692H128.284L136.411 58.1092V45.4692H136.665V59.1448H135.239L127.874 47.8139V59.1448Z" fill="white"/>
<path d="M146.062 59.1448H144.441V45.6646H141.061V45.4692H149.462V45.6646H146.062V59.1448Z" fill="white"/>
<path d="M161.164 46.2899C159.979 45.8342 158.862 45.6061 157.813 45.6061C156.765 45.6061 155.948 45.8279 155.361 46.2701C154.775 46.7134 154.482 47.3255 154.482 48.1066C154.482 49.0578 154.977 49.7939 155.967 50.3144C156.41 50.5362 156.895 50.7412 157.422 50.9295C157.95 51.1186 158.481 51.3305 159.015 51.5647C159.549 51.7994 160.037 52.0665 160.48 52.3656C160.923 52.6657 161.281 53.0791 161.554 53.6062C161.828 54.1339 161.965 54.8048 161.965 55.6186C161.965 56.433 161.737 57.1264 161.281 57.6992C160.825 58.2725 160.275 58.66 159.63 58.8618C158.985 59.0635 158.233 59.1646 157.374 59.1646C155.772 59.1646 154.404 58.7675 153.271 57.9729L153.369 57.8162C153.798 58.1554 154.355 58.4319 155.039 58.6465C155.723 58.8617 156.422 58.9692 157.139 58.9692C158.194 58.9692 159.096 58.7249 159.845 58.2365C160.594 57.7481 160.968 57.0285 160.968 56.0776C160.968 55.0357 160.473 54.2218 159.484 53.6356C159.041 53.3753 158.556 53.1343 158.028 52.9125C157.501 52.6913 156.97 52.4604 156.436 52.2191C155.902 51.9786 155.413 51.7087 154.971 51.4085C153.981 50.7574 153.486 49.8331 153.486 48.6343C153.486 47.6836 153.805 46.9121 154.443 46.319C155.081 45.727 156.042 45.4302 157.325 45.4302C158.607 45.4302 159.913 45.652 161.242 46.0947L161.164 46.2899Z" fill="white"/>
</svg>
